<svg width="24" height="24" viewBox="0 0 24 24" fill="none" xmlns="http://www.w3.org/2000/svg">
<g id="comment_light">
<path id="Union" d="M4.82698 7.13803L5.40613 7.43312L4.82698 7.13803ZM5.2682 18.7318L5.72782 19.1914H5.72782L5.2682 18.7318ZM17.862 16.173L17.5669 15.5939L17.862 16.173ZM19.173 14.862L18.5939 14.5669L19.173 14.862ZM19.173 7.13803L18.5939 7.43312V7.43312L19.173 7.13803ZM17.862 5.82698L18.1571 5.24783L18.1571 5.24783L17.862 5.82698ZM6.13803 5.82698L6.43312 6.40613L6.13803 5.82698ZM7.20711 16.7929L7.66673 17.2525L7.20711 16.7929ZM5.15 10.3C5.15 9.4492 5.15051 8.85018 5.18871 8.38254C5.2263 7.92248 5.29711 7.64709 5.40613 7.43312L4.24783 6.84293C4.02987 7.27071 3.93719 7.73622 3.89303 8.27668C3.84949 8.80954 3.85 9.47065 3.85 10.3H5.15ZM5.15 11.5V10.3H3.85V11.5H5.15ZM3.85 11.5V16.5H5.15V11.5H3.85ZM3.85 16.5V18.4136H5.15V16.5H3.85ZM3.85 18.4136C3.85 19.3936 5.03486 19.8844 5.72782 19.1914L4.80858 18.2722C4.93457 18.1462 5.15 18.2354 5.15 18.4136H3.85ZM5.72782 19.1914L7.66673 17.2525L6.74749 16.3333L4.80858 18.2722L5.72782 19.1914ZM14.7 15.85H7.91421V17.15H14.7V15.85ZM17.5669 15.5939C17.3529 15.7029 17.0775 15.7737 16.6175 15.8113C16.1498 15.8495 15.5508 15.85 14.7 15.85V17.15C15.5294 17.15 16.1905 17.1505 16.7233 17.107C17.2638 17.0628 17.7293 16.9701 18.1571 16.7522L17.5669 15.5939ZM18.5939 14.5669C18.3686 15.0091 18.0091 15.3686 17.5669 15.5939L18.1571 16.7522C18.8439 16.4022 19.4022 15.8439 19.7522 15.1571L18.5939 14.5669ZM18.85 11.7C18.85 12.5508 18.8495 13.1498 18.8113 13.6175C18.7737 14.0775 18.7029 14.3529 18.5939 14.5669L19.7522 15.1571C19.9701 14.7293 20.0628 14.2638 20.107 13.7233C20.1505 13.1905 20.15 12.5294 20.15 11.7H18.85ZM18.85 10.3V11.7H20.15V10.3H18.85ZM18.5939 7.43312C18.7029 7.64709 18.7737 7.92248 18.8113 8.38254C18.8495 8.85018 18.85 9.4492 18.85 10.3H20.15C20.15 9.47065 20.1505 8.80954 20.107 8.27668C20.0628 7.73622 19.9701 7.27071 19.7522 6.84293L18.5939 7.43312ZM17.5669 6.40613C18.0091 6.63144 18.3686 6.99094 18.5939 7.43312L19.7522 6.84294C19.4022 6.15614 18.8439 5.59776 18.1571 5.24783L17.5669 6.40613ZM14.7 6.15C15.5508 6.15 16.1498 6.15051 16.6175 6.18871C17.0775 6.2263 17.3529 6.29711 17.5669 6.40613L18.1571 5.24783C17.7293 5.02987 17.2638 4.93719 16.7233 4.89303C16.1905 4.84949 15.5294 4.85 14.7 4.85V6.15ZM9.3 6.15H14.7V4.85H9.3V6.15ZM6.43312 6.40613C6.64709 6.29711 6.92248 6.2263 7.38254 6.18871C7.85018 6.15051 8.4492 6.15 9.3 6.15V4.85C8.47065 4.85 7.80954 4.84949 7.27668 4.89303C6.73622 4.93719 6.27071 5.02987 5.84293 5.24783L6.43312 6.40613ZM5.40613 7.43312C5.63144 6.99094 5.99094 6.63144 6.43312 6.40613L5.84293 5.24783C5.15614 5.59776 4.59776 6.15614 4.24783 6.84293L5.40613 7.43312ZM7.66673 17.2525C7.73236 17.1869 7.82139 17.15 7.91421 17.15V15.85C7.47661 15.85 7.05692 16.0238 6.74749 16.3333L7.66673 17.2525Z" fill="#2D2D2D"/>
<path id="Vector 7" d="M8.5 9.5L15.5 9.5" stroke="#2D2D2D" stroke-width="1.3" stroke-linecap="round" stroke-linejoin="round"/>
<path id="Vector 9" d="M8.5 12.5L13.5 12.5" stroke="#2D2D2D" stroke-width="1.3" stroke-linecap="round" stroke-linejoin="round"/>
</g>
</svg>
