<svg width="29" height="28" viewBox="0 0 29 28" fill="none" xmlns="http://www.w3.org/2000/svg">
<path d="M15.7848 24.75L14.2611 23.875L17.7639 17.75H23.018C23.4825 17.75 23.9279 17.5656 24.2564 17.2374C24.5848 16.9092 24.7694 16.4641 24.7694 16V5.5C24.7694 5.03587 24.5848 4.59075 24.2564 4.26256C23.9279 3.93437 23.4825 3.75 23.018 3.75H5.50422C5.03972 3.75 4.59425 3.93437 4.26581 4.26256C3.93736 4.59075 3.75284 5.03587 3.75284 5.5V16C3.75284 16.4641 3.93736 16.9092 4.26581 17.2374C4.59425 17.5656 5.03972 17.75 5.50422 17.75H13.3854V19.5H5.50422C4.57523 19.5 3.68429 19.1313 3.0274 18.4749C2.3705 17.8185 2.00146 16.9283 2.00146 16V5.5C2.00146 4.57174 2.3705 3.6815 3.0274 3.02513C3.68429 2.36875 4.57523 2 5.50422 2H23.018C23.947 2 24.8379 2.36875 25.4948 3.02513C26.1517 3.6815 26.5207 4.57174 26.5207 5.5V16C26.5207 16.9283 26.1517 17.8185 25.4948 18.4749C24.8379 19.1313 23.947 19.5 23.018 19.5H18.7797L15.7848 24.75Z" fill="#2D2D2D"/>
<path d="M7.25562 7.25H21.2666V9H7.25562V7.25ZM7.25562 12.5H16.0125V14.25H7.25562V12.5Z" fill="#2D2D2D"/>
</svg>
