<svg width="28" height="28" viewBox="0 0 28 28" fill="none" xmlns="http://www.w3.org/2000/svg">
<path d="M23.1087 21.875L26.25 18.7337L25.0163 17.5L21.875 20.6413L18.7337 17.5L17.5 18.7337L20.6413 21.875L17.5 25.0163L18.7337 26.25L21.875 23.1087L25.0163 26.25L26.25 25.0163L23.1087 21.875Z" fill="#2D2D2D"/>
<path d="M21.875 4.375H19.25V3.5C19.2487 3.03628 19.0639 2.59194 18.736 2.26404C18.4081 1.93614 17.9637 1.75134 17.5 1.75H10.5C10.0363 1.75134 9.59194 1.93614 9.26404 2.26404C8.93614 2.59194 8.75134 3.03628 8.75 3.5V4.375H6.125C5.66128 4.37634 5.21694 4.56114 4.88904 4.88904C4.56114 5.21694 4.37634 5.66128 4.375 6.125V24.5C4.37634 24.9637 4.56114 25.4081 4.88904 25.736C5.21694 26.0639 5.66128 26.2487 6.125 26.25H14V24.5H6.125V6.125H8.75V8.75H19.25V6.125H21.875V14.875H23.625V6.125C23.6237 5.66128 23.4389 5.21694 23.111 4.88904C22.7831 4.56114 22.3387 4.37634 21.875 4.375ZM17.5 7H10.5V3.5H17.5V7Z" fill="#2D2D2D"/>
</svg>
