<svg width="28" height="28" viewBox="0 0 28 28" fill="none" xmlns="http://www.w3.org/2000/svg">
<g id="Edit_light">
<path id="Rectangle 1" d="M6.13372 16.8118L6.13372 16.8118C6.12099 16.8246 6.10809 16.8374 6.09507 16.8504C5.93976 17.005 5.76687 17.1771 5.6443 17.3936C5.52172 17.6101 5.46307 17.8469 5.41038 18.0597C5.40596 18.0775 5.40159 18.0952 5.39722 18.1126L4.426 21.9975L5.20211 22.1915L4.426 21.9975C4.42333 22.0082 4.42059 22.0191 4.4178 22.0302C4.3802 22.1801 4.33291 22.3685 4.31688 22.5323C4.2987 22.7182 4.2961 23.0938 4.60113 23.3989L5.16682 22.8332L4.60113 23.3989C4.90616 23.7039 5.28176 23.7013 5.46767 23.6831C5.63154 23.6671 5.81998 23.6198 5.96982 23.5822C5.98093 23.5794 5.99182 23.5767 6.00248 23.574L9.88737 22.6028C9.90483 22.5984 9.92249 22.594 9.94031 22.5896C10.1531 22.5369 10.3899 22.4783 10.6064 22.3557C10.8229 22.2331 10.995 22.0602 11.1496 21.9049C11.1626 21.8919 11.1754 21.879 11.1882 21.8663L21.1515 11.903L21.1846 11.8699C21.4893 11.5652 21.7721 11.2825 21.9718 11.0208C22.1928 10.7312 22.3858 10.3754 22.3858 9.92308C22.3858 9.47072 22.1928 9.11498 21.9718 8.82537C21.7721 8.56369 21.4894 8.28098 21.1846 7.97629L21.1515 7.94318L20.0568 6.84853L20.0237 6.8154C19.719 6.51064 19.4363 6.22786 19.1746 6.0282C18.885 5.80723 18.5293 5.61421 18.0769 5.61421C17.6246 5.61421 17.2688 5.80724 16.9792 6.0282C16.7175 6.22786 16.4348 6.51064 16.1301 6.81541L16.097 6.84853L6.13372 16.8118Z" stroke="#2D2D2D" stroke-width="1.6"/>
<path id="Vector 107" d="M14 8.66667L18 6L22 10L19.3333 14L14 8.66667Z" fill="#2D2D2D"/>
</g>
</svg>
