<svg width="32" height="32" viewBox="0 0 32 32" fill="none" xmlns="http://www.w3.org/2000/svg">
<g id="File_dock_light">
<path id="Vector 55" d="M11.3333 16.666L20.6666 16.666" stroke="#2D2D2D" stroke-width="1.5" stroke-linecap="round"/>
<path id="Vector 58" d="M11.3333 20.666L16.6666 20.666" stroke="#2D2D2D" stroke-width="1.5" stroke-linecap="round"/>
<path id="Rectangle 4152" d="M7.33325 7.06601C7.33325 6.22594 7.33325 5.8059 7.49674 5.48503C7.64055 5.20279 7.87002 4.97332 8.15227 4.82951C8.47313 4.66602 8.89317 4.66602 9.73325 4.66602H17.0058C17.3727 4.66602 17.5561 4.66602 17.7288 4.70746C17.8818 4.74421 18.0281 4.80481 18.1623 4.88706C18.3137 4.97982 18.4434 5.10953 18.7029 5.36896L23.9636 10.6297C24.2231 10.8892 24.3528 11.0189 24.4455 11.1703C24.5278 11.3045 24.5884 11.4508 24.6251 11.6038C24.6666 11.7765 24.6666 11.9599 24.6666 12.3268V24.9327C24.6666 25.7728 24.6666 26.1928 24.5031 26.5137C24.3593 26.7959 24.1298 27.0254 23.8476 27.1692C23.5267 27.3327 23.1067 27.3327 22.2666 27.3327H9.73325C8.89317 27.3327 8.47313 27.3327 8.15227 27.1692C7.87002 27.0254 7.64055 26.7959 7.49674 26.5137C7.33325 26.1928 7.33325 25.7728 7.33325 24.9327V7.06601Z" stroke="#2D2D2D" stroke-width="1.5"/>
<path id="Vector 317" d="M16.6667 4.66602V10.266C16.6667 11.1061 16.6667 11.5261 16.8302 11.847C16.974 12.1292 17.2035 12.3587 17.4858 12.5025C17.8066 12.666 18.2267 12.666 19.0667 12.666H24.6667" stroke="#2D2D2D" stroke-width="1.5"/>
</g>
</svg>
