<svg width="28" height="28" viewBox="0 0 28 28" fill="none" xmlns="http://www.w3.org/2000/svg">
<g id="trash-can">
<path id="Vector" d="M10.5 10.5H12.25V21H10.5V10.5ZM15.75 10.5H17.5V21H15.75V10.5Z" fill="#2D2D2D"/>
<path id="Vector_2" d="M3.5 5.25V7H5.25V24.5C5.25 24.9641 5.43437 25.4092 5.76256 25.7374C6.09075 26.0656 6.53587 26.25 7 26.25H21C21.4641 26.25 21.9092 26.0656 22.2374 25.7374C22.5656 25.4092 22.75 24.9641 22.75 24.5V7H24.5V5.25H3.5ZM7 24.5V7H21V24.5H7ZM10.5 1.75H17.5V3.5H10.5V1.75Z" fill="#2D2D2D"/>
</g>
</svg>
