<svg width="29" height="28" viewBox="0 0 29 28" fill="none" xmlns="http://www.w3.org/2000/svg">
<path d="M18.0141 23C18.9813 23 19.7654 22.2165 19.7654 21.25C19.7654 20.2835 18.9813 19.5 18.0141 19.5C17.0468 19.5 16.2627 20.2835 16.2627 21.25C16.2627 22.2165 17.0468 23 18.0141 23Z" fill="#2D2D2D"/>
<path d="M24.8242 20.7937C24.2831 19.4164 23.3494 18.2281 22.1388 17.376C20.9283 16.5239 19.4941 16.0455 18.0141 16C16.534 16.0455 15.0998 16.5239 13.8893 17.376C12.6787 18.2281 11.745 19.4164 11.2039 20.7937L11.0085 21.25L11.2039 21.7063C11.745 23.0836 12.6787 24.2719 13.8893 25.124C15.0998 25.9761 16.534 26.4545 18.0141 26.5C19.4941 26.4545 20.9283 25.9761 22.1388 25.124C23.3494 24.2719 24.2831 23.0836 24.8242 21.7063L25.0196 21.25L24.8242 20.7937ZM18.0141 24.75C17.3213 24.75 16.6441 24.5447 16.068 24.1601C15.492 23.7756 15.043 23.2289 14.7779 22.5894C14.5128 21.9499 14.4434 21.2461 14.5786 20.5672C14.7138 19.8883 15.0474 19.2646 15.5372 18.7751C16.0271 18.2856 16.6512 17.9523 17.3307 17.8173C18.0102 17.6822 18.7145 17.7515 19.3545 18.0164C19.9945 18.2813 20.5416 18.7299 20.9265 19.3055C21.3114 19.8811 21.5168 20.5578 21.5168 21.25C21.5158 22.1779 21.1464 23.0676 20.4897 23.7237C19.8331 24.3799 18.9427 24.749 18.0141 24.75Z" fill="#2D2D2D"/>
<path d="M9.2573 24.7503H5.75455V3.7503H12.7601V9.0003C12.7614 9.46402 12.9463 9.90836 13.2745 10.2363C13.6027 10.5642 14.0474 10.749 14.5114 10.7503H19.7656V14.2503H21.5169V9.0003C21.5201 8.8853 21.4982 8.77098 21.4529 8.66524C21.4075 8.5595 21.3397 8.46484 21.2542 8.3878L15.1244 2.2628C15.0473 2.17734 14.9526 2.10961 14.8468 2.06429C14.7409 2.01897 14.6265 1.99714 14.5114 2.0003H5.75455C5.29047 2.00164 4.84578 2.18644 4.51762 2.51434C4.18946 2.84224 4.00451 3.28658 4.00317 3.7503V24.7503C4.00451 25.214 4.18946 25.6584 4.51762 25.9863C4.84578 26.3142 5.29047 26.499 5.75455 26.5003H9.2573V24.7503ZM14.5114 4.1003L19.4153 9.0003H14.5114V4.1003Z" fill="#2D2D2D"/>
</svg>
